<svg data-v-0dd9719b="" version="1.0" xmlns="http://www.w3.org/2000/svg" xmlns:xlink="http://www.w3.org/1999/xlink" width="100%" height="100%" viewBox="0 0 340.000000 250.000000" preserveAspectRatio="xMidYMid meet" color-interpolation-filters="sRGB" style="margin: auto;"> <rect data-v-0dd9719b="" x="0" y="0" width="100%" height="100%" fill="#fff" fill-opacity="1" class="background"></rect> <rect data-v-0dd9719b="" x="0" y="0" width="100%" height="100%" fill="url(#watermark)" fill-opacity="1" class="watermarklayer"></rect> <g data-v-0dd9719b="" fill="#333333" class="icon-text-wrapper icon-svg-group iconsvg" transform="translate(48.26000213623047,95.0248794555664)"><g class="iconsvg-imagesvg" transform="translate(0,0)"><g><rect fill="#333333" fill-opacity="0" stroke-width="2" x="0" y="0" width="60" height="59.95024129972123" class="image-rect"></rect> <svg x="0" y="0" width="60" height="59.95024129972123" filtersec="colorsb8722752056" class="image-svg-svg primary" style="overflow: visible;"><svg xmlns="http://www.w3.org/2000/svg" viewBox="-0.04500080272555351 0 54.225189208984375 54.18000030517578"><g><path d="M47.18 12V6H15a9 9 0 0 0 0 18.09h24.13a15 15 0 1 1 0 30.09H1v-18h37.56a3 3 0 0 1 0 6H7v6h32.13a9 9 0 1 0 0-18.09H15A15 15 0 0 1 15 0h38.18v18H15.61a3 3 0 0 1 0-6z" fill="#333333"></path></g></svg></svg> <!----></g></g> <g transform="translate(67,1.048868179321289)"><g data-gra="path-name" fill-rule="" class="tp-name iconsvg-namesvg" transform="translate(0,0)"><g transform="scale(1)"><g><path d="M14.06-30.76L13.89-37.27Q18.46-35.68 18.28-35.51L18.28-35.51Q18.28-35.33 17.4-34.45L17.4-34.45Q16.88-33.93 16.88-33.93L16.88-33.93 16.88-30.76 26.19-30.76 26.19-37.27Q30.23-35.51 30.23-35.33L30.23-35.33Q30.23-35.16 29.36-34.63L29.36-34.63Q28.65-34.28 28.65-34.28L28.65-34.28 28.65-30.76 36.56-30.76 38.67-33.4 42.71-29.88 42.54-29.71 28.65-29.71 28.65-25.14Q27.25-24.08 26.19-23.91L26.19-23.91 26.19-29.71 16.88-29.71 16.88-24.26Q15.47-23.38 14.06-23.38L14.06-23.38 14.06-29.71 4.22-29.71 2.29-29.18 1.41-30.76 14.06-30.76ZM18.28-26.37L18.28-26.37Q22.85-24.79 22.85-24.43L22.85-24.43Q22.85-24.26 22.15-23.73L22.15-23.73Q21.27-23.2 21.27-23.03L21.27-23.03Q21.27-22.5 21.09-21.27L21.09-21.27Q20.92-20.21 20.74-19.51L20.74-19.51 27.77-19.51Q27.77-19.51 28.48-20.39L28.48-20.39Q29.36-21.62 29.53-21.62L29.53-21.62Q30.23-21.27 33.22-18.81L33.22-18.81Q33.22-18.81 32.7-18.46L32.7-18.46Q31.46-17.58 31.46-17.4L31.46-17.4Q31.29-16 31.11-11.95L31.11-11.95Q30.59-1.23 29.36 1.23L29.36 1.23Q27.95 4.04 23.38 5.1L23.38 5.1Q23.38 5.1 23.38 4.92L23.38 4.92Q23.91 2.11 18.28 0.35L18.28 0.35 18.46-0.35Q24.79 1.23 26.02 0.7L26.02 0.7Q27.95 0 28.48-18.46L28.48-18.46 20.74-18.46Q20.74-1.41 3.34 5.63L3.34 5.63 2.99 5.1Q18.63-2.99 17.93-18.46L17.93-18.46 7.56-18.46 5.45-18.11 4.22-19.51 18.11-19.51Q18.11-20.04 18.11-21.97L18.11-21.97Q18.28-24.96 18.28-26.37ZM9.32-15.29L9.32-15.29 10.02-15.29Q10.37-6.5 6.86-4.57L6.86-4.57Q5.27-4.04 4.39-4.92L4.39-4.92Q3.69-5.98 4.57-7.21L4.57-7.21Q4.75-7.38 5.45-7.91L5.45-7.91Q8.44-9.67 9.32-15.29ZM33.4-14.77L33.75-15.29Q40.78-9.49 41.31-7.73L41.31-7.73Q42.54-3.69 39.2-3.16L39.2-3.16Q38.67-3.34 38.32-5.1L38.32-5.1Q37.44-10.2 33.4-14.77L33.4-14.77ZM56.6-36.39L56.6-36.39Q60.12-34.98 61.17-34.45L61.17-34.45Q61.17-34.45 60.64-33.93L60.64-33.93Q59.59-33.22 59.59-33.05L59.59-33.05Q59.77-8.09 56.95-4.04L56.95-4.04Q54.32 0.7 46.76 4.92L46.76 4.92 46.23 4.22Q59.06-1.23 56.6-31.64L56.6-31.64Q56.6-34.8 56.6-36.39ZM80.16-36.04L80.16-36.04Q83.67-34.8 84.55-34.1L84.55-34.1Q84.55-34.1 84.02-33.57L84.02-33.57Q83.14-32.7 83.14-32.52L83.14-32.52 83.67 2.99Q82.79 4.04 80.33 4.39L80.33 4.39Q80.33 1.58 80.33-11.07L80.33-11.07Q80.16-30.06 80.16-36.04ZM68.55-34.98L68.55-34.98Q72.25-33.57 72.77-32.87L72.77-32.87Q72.77-32.87 72.25-32.34L72.25-32.34Q71.37-31.46 71.37-31.29L71.37-31.29 71.37-1.58Q70.84-0.88 68.38-0.18L68.38-0.18Q68.55-9.49 68.55-19.51L68.55-19.51Q68.73-29 68.55-34.98ZM51.33-24.43L51.33-24.43 51.86-24.61Q53.79-17.05 51.68-14.41L51.68-14.41Q50.27-12.66 48.52-13.01L48.52-13.01Q46.76-13.54 47.99-15.29L47.99-15.29Q48.16-15.47 48.34-15.64L48.34-15.64Q51.15-18.28 51.33-24.43ZM60.64-23.73L61.35-24.08Q65.74-19.51 65.92-18.28L65.92-18.28Q65.74-14.41 63.28-14.59L63.28-14.59Q62.75-14.77 62.75-16.35L62.75-16.35Q62.75-20.39 60.64-23.73L60.64-23.73ZM72.77-23.73L73.3-24.26Q77.34-20.21 78.05-18.11L78.05-18.11Q77.52-14.77 75.41-14.77L75.41-14.77Q75.23-14.94 75.06-16.17L75.06-16.17Q74.71-20.39 72.77-23.73L72.77-23.73ZM98.44-36.39L98.44-36.39Q102.48-34.28 102.48-34.1L102.48-34.1Q102.48-34.1 102.13-33.75L102.13-33.75Q100.72-33.05 100.55-32.52L100.55-32.52Q100.2-31.64 99.67-30.23L99.67-30.23Q98.96-28.3 98.79-27.6L98.79-27.6 104.24-27.6 106.52-29.71 109.51-26.72 109.51-26.54 98.44-26.54Q98.09-25.84 97.21-24.08L97.21-24.08Q95.45-20.74 95.27-20.21L95.27-20.21 103.89-20.21 105.82-22.32 108.81-19.69 108.81-19.16 101.25-19.16 101.25-12.3 104.77-12.3 106.35-14.24 109.16-11.6 109.16-11.25 101.25-11.25 101.25-1.41 108.46-6.33 108.98-5.98Q100.9 1.93 100.02 4.04L100.02 4.04Q99.84 4.22 99.84 4.22L99.84 4.22Q98.79 4.04 96.86 2.11L96.86 2.11Q96.86 2.11 97.21 1.76L97.21 1.76Q98.61 0.18 98.61-0.53L98.61-0.53 98.61-11.25 94.04-11.25 92.46-10.9 91.58-12.3 98.61-12.3 98.61-19.16 94.57-19.16Q93.34-17.23 91.23-14.24L91.23-14.24 90.7-14.59Q95.98-24.08 98.44-36.39ZM110.74-34.28L110.74-34.28Q110.92-34.45 114.26-32.17L114.26-32.17 124.1-32.17Q124.28-32.17 125.86-34.1L125.86-34.1Q127.97-32.7 129.2-31.46L129.2-31.46Q129.2-31.29 127.97-30.23L127.97-30.23Q127.44-29.88 127.44-29.88L127.44-29.88 127.62-15.12Q126.56-14.24 124.8-13.89L124.8-13.89 124.8-15.64 117.77-15.64Q119-10.72 120.94-7.38L120.94-7.38Q123.05-8.79 129.02-14.24L129.02-14.24Q131.66-11.07 131.48-10.9L131.48-10.9Q131.31-10.9 130.96-10.9L130.96-10.9Q129.73-11.25 128.85-10.72L128.85-10.72Q124.45-8.26 121.64-6.33L121.64-6.33Q125.33-1.41 133.42 0.88L133.42 0.88 133.42 1.41Q130.78 1.23 129.38 3.16L129.38 3.16Q129.2 3.52 129.02 3.52L129.02 3.52Q118.3-2.64 116.72-15.64L116.72-15.64 113.2-15.64 113.38 0.35 120.76-2.11 121.11-1.41Q113.91 2.46 111.8 4.39L111.8 4.39Q111.62 4.75 111.45 4.75L111.45 4.75Q109.16 3.16 108.81 2.64L108.81 2.64Q108.81 2.64 109.16 2.29L109.16 2.29Q110.39 1.23 110.57 0.35L110.57 0.35Q110.74-4.57 110.74-10.72L110.74-10.72Q110.74-13.71 110.74-18.81L110.74-18.81Q110.74-22.68 110.74-34.28ZM124.8-31.11L114.79-31.11Q113.2-31.11 113.2-30.06L113.2-30.06Q113.2-29.88 113.2-29.71L113.2-29.71 113.2-24.43 124.8-24.43 124.8-31.11ZM124.8-16.7L124.8-23.38 113.2-23.38 113.2-16.7 124.8-16.7ZM170.16-31.11L172.27-33.57 175.96-30.23 175.96-30.06 164.36-30.06 164.36-16.88 169.1-16.88 171.39-19.86 174.73-16.17 174.73-15.82 164.36-15.82 164.36 0.53 171.74 0.53 174.2-2.46 177.89 1.41 177.89 1.58 151.88 1.58 149.94 1.93 149.06 0.53 161.54 0.53 161.54-15.82 155.92-15.82 153.98-15.47 153.28-16.88 161.54-16.88 161.54-30.06 155.92-30.06 153.98-29.71 152.93-31.11 170.16-31.11ZM148.71-32.17L148.71-32.17 151.88-29.71Q151.7-29.53 150.29-28.48L150.29-28.48Q150.29-17.23 150.47-2.81L150.47-2.81Q148.89-1.58 147.83-1.58L147.83-1.58 147.83-4.22 141.33-4.22 141.33-0.35Q140.1 0.7 138.69 0.7L138.69 0.7Q138.87-12.66 138.87-31.99L138.87-31.99Q139.04-31.99 140.45-31.29L140.45-31.29Q142.03-30.59 142.21-30.41L142.21-30.41 147.3-30.41Q148.71-31.99 148.71-32.17ZM147.83-17.93L147.83-29.36 142.91-29.36Q142.73-29.36 142.38-29.36L142.38-29.36Q141.15-29.71 141.33-28.3L141.33-28.3 141.33-17.93 147.83-17.93ZM147.83-5.27L147.83-16.88 141.33-16.88 141.33-5.27 147.83-5.27Z" transform="translate(-1.409999966621399, 37.27000045776367)"></path></g> <!----> <!----> <!----> <!----> <!----> <!----> <!----></g></g> <g data-gra="path-slogan" fill-rule="" class="tp-slogan iconsvg-slogansvg" fill="#333333" transform="translate(33.50917434692383,48.900001525878906)"><!----> <!----> <g transform="scale(1, 1)"><g transform="scale(1)"><path d="M7.17-6.09L7.17-6.09L6.09-6.09Q6-7.73 3.94-7.83L3.94-7.83Q2.02-7.78 2.02-6.33L2.02-6.33Q2.02-5.39 3.05-5.25L3.05-5.25L5.48-4.69Q7.41-4.22 7.41-2.34L7.41-2.34Q7.36 0.05 4.03 0.14L4.03 0.14Q2.20 0.14 1.45-0.61L1.45-0.61Q0.52-1.31 0.56-2.77L0.56-2.77L1.69-2.77Q1.73-0.80 4.03-0.75L4.03-0.75Q6.28-0.80 6.33-2.20L6.33-2.20Q6.52-3.38 4.45-3.75L4.45-3.75L2.67-4.13Q0.84-4.64 0.84-6.19L0.84-6.19Q0.98-8.72 3.84-8.81L3.84-8.81Q7.08-8.81 7.17-6.09ZM14.53-3.19L14.53-8.58L15.70-8.58L15.70-3.05Q15.56 0.05 12.19 0.14L12.19 0.14Q9.05 0.05 8.91-2.86L8.91-2.86L8.91-8.58L10.08-8.58L10.08-3.19Q10.13-0.84 12.23-0.80L12.23-0.80Q14.53-0.84 14.53-3.19L14.53-3.19ZM18.33-1.03L23.63-1.03L23.63 0L16.88 0L16.88-0.94L22.13-7.59L17.25-7.59L17.25-8.58L23.63-8.58L23.63-7.59L18.33-1.03ZM25.92-5.06L30.42-5.06L30.42-8.58L31.59-8.58L31.59 0L30.42 0L30.42-3.98L25.92-3.98L25.92 0L24.75 0L24.75-8.58L25.92-8.58L25.92-5.06ZM40.17-4.27L40.17-4.27Q39.98-7.64 37.17-7.83L37.17-7.83Q34.31-7.69 34.17-4.27L34.17-4.27Q34.31-0.94 37.17-0.80L37.17-0.80Q39.98-0.98 40.17-4.27ZM41.34-4.27L41.34-4.27Q41.06 0 37.17 0.14L37.17 0.14Q33.23 0 32.95-4.27L32.95-4.27Q33.19-8.72 37.17-8.81L37.17-8.81Q41.06-8.67 41.34-4.27ZM48.38-3.19L48.38-8.58L49.55-8.58L49.55-3.05Q49.41 0.05 46.03 0.14L46.03 0.14Q42.89 0.05 42.75-2.86L42.75-2.86L42.75-8.58L43.92-8.58L43.92-3.19Q43.97-0.84 46.08-0.80L46.08-0.80Q48.38-0.84 48.38-3.19L48.38-3.19ZM61.59-8.58L58.36-3.47L58.36 0L57.19 0L57.19-3.47L53.95-8.58L55.31-8.58L57.75-4.45L60.23-8.58L61.59-8.58ZM62.81-8.58L63.98-8.58L63.98 0L62.81 0L62.81-8.58ZM67.36-8.58L71.67-1.64L71.67-8.58L72.80-8.58L72.80 0L71.48 0L67.13-6.94L67.08-6.94L67.08 0L65.95 0L65.95-8.58L67.36-8.58ZM79.36-7.13L79.31-7.13L77.34 0L76.13 0L73.88-8.58L75.09-8.58L76.73-1.59L76.78-1.59L78.70-8.58L79.97-8.58L81.89-1.59L81.94-1.59L83.53-8.58L84.80-8.58L82.55 0L81.33 0L79.36-7.13ZM91.55 0L90.70-2.48L87.23-2.48L86.34 0L85.17 0L88.41-8.58L89.72-8.58L92.81 0L91.55 0ZM88.97-7.31L87.61-3.52L90.28-3.52L89.02-7.31L88.97-7.31ZM95.25-8.58L99.56-1.64L99.56-8.58L100.69-8.58L100.69 0L99.38 0L95.02-6.94L94.97-6.94L94.97 0L93.84 0L93.84-8.58L95.25-8.58ZM108.89-3.61L106.27-3.61L106.27-4.59L110.02-4.59L110.02 0L109.27 0L108.98-1.08Q108 0.09 106.17 0.14L106.17 0.14Q104.44 0.14 103.50-0.75L103.50-0.75Q102.09-2.06 102.14-4.36L102.14-4.36Q102.47-8.63 106.22-8.81L106.22-8.81Q109.41-8.63 109.88-6L109.88-6L108.75-6Q108.28-7.78 106.17-7.83L106.17-7.83Q103.50-7.64 103.36-4.31L103.36-4.31Q103.36-0.75 106.22-0.75L106.22-0.75Q107.25-0.75 108-1.31L108-1.31Q108.94-2.06 108.89-3.61L108.89-3.61Z" transform="translate(-0.5602678571428572, 8.8125)"></path></g></g></g></g></g><defs v-gra="od"></defs></svg>